Coordinates
version=1
nRows=17
nColumns=33
inDegrees=yes

Units are S.I. units (second, meters, Newtons, ...)
Angles are in degrees.

endheader
time	ground_thorax_rot_x	ground_thorax_rot_y	ground_thorax_rot_z	ground_thorax_tx	ground_thorax_ty	ground_thorax_tz	clav_prot_r	clav_elev_r	scapula_abduction_r	scapula_elevation_r	scapula_upward_rot_r	scapula_winging_r	shoulder_elv_r	plane_of_elev_r	axial_rot_r	elbow_flexion_r	pro_sup_r	wrist_flex_r	wrist_dev_r	clav_prot_l	clav_elev_l	scapula_abduction_l	scapula_elevation_l	scapula_upward_rot_l	scapula_winging_l	shoulder_elv_l	plane_of_elev_l	axial_rot_l	elbow_flexion_l	pro_sup_l	wrist_flex_l	wrist_dev_l
      5.06000000	    -41.17490756	    -14.11390817	      8.07350323	   -117.07443724	    796.07603142	      1.99199949	     10.62389104	    -38.76192331	     45.00000000	    -45.00000000	     44.34513381	  -3622.81525411	  -4421.70517402	    -90.00000000	    -29.49460614	   2514.63261700	    -93.14368061	     16.70637286	     12.17015144	     18.71436942	     40.73970774	    -41.36927369	    -45.00000000	    -43.49419372	   3318.81347637	  -2812.58245413	     23.78716576	    -27.15083133	   1085.61468453	     17.24646227	     11.91107537	    -19.37368694
      5.07000000	    -41.16596438	    -14.51744196	      8.43235284	   -122.19533371	    796.85264146	      1.46635702	     11.32131759	    -38.96379772	     45.00000000	    -45.00000000	     42.66806845	  -3622.75540720	  -4421.49312723	    -90.00000000	    -29.66298402	   2514.54941529	    -91.98017730	     16.76986613	     12.12527107	     18.70502129	     40.49566613	    -41.08763300	    -45.00000000	    -44.05538168	   3319.06626826	  -2812.48958305	     23.42313471	    -28.09258141	   1085.84363698	     17.35696992	     11.62085737	    -19.34193085
      5.08000000	    -41.10204241	    -14.87151329	      8.78167177	   -127.38731010	    797.75967209	      0.91897723	     12.24142774	    -39.22107272	     44.68667573	    -45.00000000	     40.92056190	  -3622.50559239	  -4421.30676835	    -90.00000000	    -29.80606004	   2514.50141264	    -90.81193401	     16.90420178	     12.08760617	     18.47990849	     40.23176321	    -40.60734928	    -45.00000000	    -44.64913838	   3319.22538316	  -2812.30778883	     23.26312505	    -28.86689997	   1085.97705948	     17.44116709	     11.68896747	    -19.39918619
      5.09000000	    -41.06235927	    -15.00194820	      9.06030251	   -132.63844187	    798.80657993	      0.36276004	     12.78261961	    -39.45859091	     43.94383068	    -45.00000000	     39.20285447	  -3622.13022202	  -4421.25113051	    -90.00000000	    -29.81743566	   2514.46476607	    -89.58541042	     17.02748218	     12.05283701	     18.20818805	     40.11390385	    -40.18552115	    -45.00000000	    -45.00000000	   3319.43301824	  -2812.20093343	     23.22527434	    -29.49432789	   1085.97682718	     17.46569625	     11.83138291	    -19.44653690
      5.10000000	    -41.01529349	    -15.29852276	      9.44674661	   -137.94578025	    800.00907679	     -0.18928972	     13.21326326	    -39.73554468	     43.19892885	    -45.00000000	     37.29190224	  -3621.74267139	  -4421.34628154	    -90.00000000	    -29.67695493	   2514.35771962	    -88.43072545	     17.11597976	     12.01339066	     17.80292370	     40.00043605	    -39.56985412	    -45.00000000	    -45.00000000	   3319.67684346	  -2812.15171356	     22.98072245	    -30.60202772	   1086.02824523	     17.55300671	     11.87099786	    -19.51131704
      5.11000000	    -41.05227711	    -15.32256768	      9.64442930	   -143.28942081	    801.36625390	     -0.73248076	     13.60434941	    -39.93319228	     42.47668874	    -45.00000000	     35.70849527	  -3621.42340196	  -4421.20034367	    -90.00000000	    -29.78252686	   2514.39152099	    -87.44660782	     17.30842237	     11.99981754	     17.73786816	     39.79030561	    -39.32713051	    -45.00000000	    -45.00000000	   3319.95567885	  -2812.06168169	     22.53717308	    -32.08191552	   1086.23236368	     17.71026050	     11.80347982	    -19.51719450
      5.12000000	    -41.03844373	    -15.37159773	      9.89574975	   -148.64660791	    802.87498030	     -1.26802175	     14.11898840	    -40.21548219	     41.71553176	    -45.00000000	     34.01829604	  -3621.03626816	  -4421.13754353	    -90.00000000	    -29.80622853	   2514.34022751	    -86.52419662	     17.45815437	     11.97729654	     17.62419205	     39.67193095	    -38.97574031	    -45.00000000	    -45.00000000	   3320.27000201	  -2812.02604563	     22.22713090	    -33.42186476	   1086.37241033	     17.85209003	     11.78375325	    -19.57866070
      5.13000000	    -41.04897083	    -15.55004326	     10.22009164	   -153.99227719	    804.53194807	     -1.79548092	     14.67716337	    -40.53242880	     41.12735470	    -45.00000000	     32.17993140	  -3620.68059693	  -4421.13293893	    -90.00000000	    -29.77205677	   2514.32800231	    -85.63157271	     17.56422556	     11.96836256	     17.32696771	     39.57253295	    -38.53275422	    -45.00000000	    -45.00000000	   3320.58346378	  -2811.87357854	     21.85757526	    -34.70916528	   1086.50416086	     18.03909053	     11.77155893	    -19.66878986
      5.14000000	    -41.06769888	    -15.58218623	     10.44432545	   -159.30771701	    806.33613903	     -2.31319861	     15.13496157	    -40.79694309	     40.42710041	    -45.00000000	     30.58731193	  -3620.32862951	  -4420.99612402	    -90.00000000	    -29.87154593	   2514.29829305	    -84.80576745	     17.73079144	     11.94712688	     17.14163789	     39.37573694	    -38.26903582	    -45.00000000	    -45.00000000	   3320.90201410	  -2811.80107368	     21.45436960	    -36.02282347	   1086.67586323	     18.29427403	     11.69691371	    -19.74058224
      5.15000000	    -41.06817347	    -15.62517278	     10.64043863	   -164.55991692	    808.28171641	     -2.81723392	     15.60576367	    -41.09064256	     39.85155480	    -45.00000000	     29.03912356	  -3619.95115888	  -4420.89896568	    -90.00000000	    -29.93206502	   2514.30037111	    -84.02007032	     17.85045179	     11.94376942	     16.91647668	     39.29563038	    -37.81255265	    -45.00000000	    -45.00000000	   3321.12867930	  -2811.55926662	     21.10846296	    -37.20687849	   1086.83674804	     18.62694863	     11.61272047	    -19.83833924
      5.16000000	    -41.09038143	    -15.58640605	     10.76014148	   -169.73579926	    810.36660800	     -3.30414249	     16.02749088	    -41.39617111	     39.23724879	    -45.00000000	     27.61027407	  -3619.54754929	  -4420.81378062	    -90.00000000	    -29.98032754	   2514.33468782	    -83.27841002	     18.00869301	     11.93852680	     16.82291715	     39.22163545	    -37.50979422	    -45.00000000	    -45.00000000	   3321.49723881	  -2811.48216055	     20.88012720	    -38.29833411	   1086.96540287	     19.06080676	     11.65847269	    -19.99418238
      5.17000000	    -41.09977474	    -15.57687535	     10.88493615	   -174.81031263	    812.58124192	     -3.76864233	     16.52319486	    -41.71967892	     38.69670241	    -45.00000000	     26.24634369	  -3619.18240961	  -4420.71689412	    -90.00000000	    -30.03859970	   2514.33702729	    -82.55995422	     18.09873844	     11.94227358	     16.61530967	     39.19197333	    -37.06975883	    -45.00000000	    -45.00000000	   3321.78847263	  -2811.28929318	     20.65139096	    -39.27273468	   1087.14151846	     19.55920744	     11.53501823	    -20.14144847
      5.18000000	    -41.14275507	    -15.40105758	     10.92209606	   -179.76421059	    814.91421866	     -4.20476388	     16.86311663	    -41.97688318	     38.14654528	    -45.00000000	     25.04786871	  -3618.83941295	  -4420.53077536	    -90.00000000	    -30.18746166	   2514.39166540	    -81.98305571	     18.27626797	     11.94727732	     16.54471087	     39.09446619	    -36.84846534	    -45.00000000	    -45.00000000	   3322.09871704	  -2811.12790657	     20.38651800	    -40.25253586	   1087.34419128	     20.19454774	     11.46606903	    -20.29558790
      5.19000000	    -41.16551380	    -15.17059759	     10.90830985	   -184.57835377	    817.35098192	     -4.60642865	     17.18403129	    -42.20896306	     37.71206288	    -45.00000000	     24.00473932	  -3618.55662666	  -4420.33271316	    -90.00000000	    -30.34940989	   2514.39559262	    -81.56168519	     18.41963717	     11.95019754	     16.37209691	     38.99220967	    -36.66792895	    -45.00000000	    -45.00000000	   3322.38238528	  -2810.95621565	     20.09212629	    -41.30182238	   1087.57032930	     20.95534791	     11.34416049	    -20.46100331
      5.20000000	    -41.19993912	    -15.02324299	     10.91425871	   -189.23686207	    819.87531602	     -4.96823830	     17.50723526	    -42.47212247	     37.25453403	    -45.00000000	     22.94486634	  -3618.18034140	  -4420.16585420	    -90.00000000	    -30.48009453	   2514.49527694	    -81.27303228	     18.53703472	     11.98482436	     16.24530683	     38.94919016	    -36.38453511	    -45.00000000	    -45.00000000	   3322.69634939	  -2810.81420650	     19.91900762	    -42.00782689	   1087.74565049	     21.79516070	     11.23636159	    -20.64363329
      5.21000000	    -41.22972554	    -14.75056999	     10.84857759	   -193.72106432	    822.46727703	     -5.28635120	     17.73010525	    -42.67511722	     36.85790246	    -45.00000000	     22.06480823	  -3617.88187336	  -4419.95732776	    -90.00000000	    -30.65325101	   2514.56668002	    -81.14514807	     18.65748964	     12.01440218	     16.15595710	     38.88562271	    -36.19530179	    -45.00000000	    -45.00000000	   3322.96585938	  -2810.65276914	     19.72866436	    -42.68891994	   1087.94418495	     22.69806201	     11.13277938	    -20.82910159
      5.22000000	    -41.27657789	    -14.49439274	     10.83100744	   -198.01812514	    825.10917731	     -5.55935583	     18.07470569	    -42.91284874	     36.49089018	    -45.00000000	     21.14626267	  -3617.64038077	  -4419.73984015	    -90.00000000	    -30.83543211	   2514.63085637	    -81.17536269	     18.76034295	     12.04226203	     15.98937427	     38.78997594	    -36.02800730	    -45.00000000	    -45.00000000	   3323.26251202	  -2810.49514154	     19.55130820	    -43.45982435	   1088.07907382	     23.69604925	     11.00510201	    -20.99723685
